<?xml version="1.0" encoding="UTF-8" standalone="no"?>
<svg
   xmlns:dc="http://purl.org/dc/elements/1.1/"
   xmlns:cc="http://creativecommons.org/ns#"
   xmlns:rdf="http://www.w3.org/1999/02/22-rdf-syntax-ns#"
   xmlns:svg="http://www.w3.org/2000/svg"
   xmlns="http://www.w3.org/2000/svg"
   xmlns:sodipodi="http://sodipodi.sourceforge.net/DTD/sodipodi-0.dtd"
   xmlns:inkscape="http://www.inkscape.org/namespaces/inkscape"
   viewBox="0 0 576 512"
   id="svg2"
   version="1.1"
   inkscape:version="0.91 r13725"
   sodipodi:docname="eye-slash.svg">
  <metadata
     id="metadata10">
    <rdf:RDF>
      <cc:Work
         rdf:about="">
        <dc:format>image/svg+xml</dc:format>
        <dc:type
           rdf:resource="http://purl.org/dc/dcmitype/StillImage" />
      </cc:Work>
    </rdf:RDF>
  </metadata>
  <defs
     id="defs8" />
  <sodipodi:namedview
     pagecolor="#ffffff"
     bordercolor="#666666"
     borderopacity="1"
     objecttolerance="10"
     gridtolerance="10"
     guidetolerance="10"
     inkscape:pageopacity="0"
     inkscape:pageshadow="2"
     inkscape:window-width="708"
     inkscape:window-height="480"
     id="namedview6"
     showgrid="false"
     inkscape:zoom="0.4609375"
     inkscape:cx="296.67797"
     inkscape:cy="256"
     inkscape:window-x="65"
     inkscape:window-y="24"
     inkscape:window-maximized="0"
     inkscape:current-layer="svg2" />
  <path
     d="M286.693 391.984l32.579 46.542A333.958 333.958 0 0 1 288 440C168.19 440 63.031 376.051 6.646 280.369a47.999 47.999 0 0 1 0-48.739c24.023-40.766 56.913-75.775 96.024-102.537l57.077 81.539C154.736 224.82 152 240.087 152 256c0 74.736 60.135 135.282 134.693 135.984zm282.661-111.615c-31.667 53.737-78.747 97.46-135.175 125.475l.011.015 41.47 59.2c7.6 10.86 4.96 25.82-5.9 33.42l-13.11 9.18c-10.86 7.6-25.82 4.96-33.42-5.9L100.34 46.94c-7.6-10.86-4.96-25.82 5.9-33.42l13.11-9.18c10.86-7.6 25.82-4.96 33.42 5.9l51.038 72.617C230.68 75.776 258.905 72 288 72c119.81 0 224.969 63.949 281.354 159.631a48.002 48.002 0 0 1 0 48.738zM424 256c0-75.174-60.838-136-136-136-17.939 0-35.056 3.473-50.729 9.772l19.299 27.058c25.869-8.171 55.044-6.163 80.4 7.41h-.03c-23.65 0-42.82 19.17-42.82 42.82 0 23.626 19.147 42.82 42.82 42.82 23.65 0 42.82-19.17 42.82-42.82v-.03c18.462 34.49 16.312 77.914-8.25 110.95v.01l19.314 27.061C411.496 321.2 424 290.074 424 256zM262.014 356.727l-77.53-110.757c-5.014 52.387 29.314 98.354 77.53 110.757z"
     id="path4"
     style="fill:#4d4d4d" />
</svg>
