<?xml version="1.0" encoding="UTF-8" standalone="no"?>
<svg
   xmlns:dc="http://purl.org/dc/elements/1.1/"
   xmlns:cc="http://creativecommons.org/ns#"
   xmlns:rdf="http://www.w3.org/1999/02/22-rdf-syntax-ns#"
   xmlns:svg="http://www.w3.org/2000/svg"
   xmlns="http://www.w3.org/2000/svg"
   id="svg873"
   version="1.1"
   viewBox="0 0 72.248894 72.248894"
   height="72.248894mm"
   width="72.248894mm">
  <defs
     id="defs867" />
  <metadata
     id="metadata870">
    <rdf:RDF>
      <cc:Work
         rdf:about="">
        <dc:format>image/svg+xml</dc:format>
        <dc:type
           rdf:resource="http://purl.org/dc/dcmitype/StillImage" />
        <dc:title></dc:title>
      </cc:Work>
    </rdf:RDF>
  </metadata>
  <g
     transform="translate(-58.369629,-44.673168)"
     id="layer1">
    <rect
       ry="6.2149591"
       y="44.673168"
       x="58.369629"
       height="72.248894"
       width="72.248894"
       id="rect3907"
       style="fill:#f9f9f9;fill-opacity:1;stroke-width:0.28222224"
       rx="6.2149591" />
    <path
       style="fill:#0088aa;fill-opacity:1;stroke-width:0.28222224"
       d="m 120.262,95.445443 c 0,-1.32476 -0.7456,-2.3852 -1.6716,-2.3852 H 70.3879 c -0.9259,0 -1.6618,1.06044 -1.6618,2.3852 l -1e-4,11.163527 c 1e-4,1.32476 0.736,2.39497 1.6619,2.39498 h 48.2025 c 0.926,0 1.6716,-1.07022 1.6716,-2.39498 z"
       id="path3919" />
    <path
       id="path3939"
       d="m 103.2111,53.846603 c -12.8034,0 -23.1864,10.37413 -23.1864,23.1775 0,12.80336 10.383,23.186317 23.1864,23.186317 12.8033,0 23.1775,-10.382957 23.1775,-23.186317 0,-12.80337 -10.3742,-23.1775 -23.1775,-23.1775 z"
       style="fill:#ffcc00;fill-opacity:1;stroke:none;stroke-width:0.28222224" />
    <path
       id="path3946"
       d="m 82.0797,48.149243 -22.031,40.21667 c -0.1041,1.15717 0.5401,1.71679 1.7022,1.85208 l 41.1603,0.17639 c 1.3568,-0.18733 1.9613,-0.75543 1.367,-1.92264 z"
       style="fill:#d40000;fill-opacity:1;stroke:none;stroke-width:0.28222224" />
  </g>
</svg>
